<?xml version="1.0" encoding="UTF-8"?>
<svg version="1.1" xmlns="http://www.w3.org/2000/svg" width="500" height="500">
<path d="M0 0 C165 0 330 0 500 0 C500 165 500 330 500 500 C335 500 170 500 0 500 C0 335 0 170 0 0 Z " fill="#FEFEFE" transform="translate(0,0)"/>
<path d="M0 0 C5.35755096 1.92063148 8.45837216 4.91674432 11 10 C11.56350726 14.61891196 11.4422879 18.09841312 9.375 22.3125 C6.26553368 25.83110663 3.6069796 28.67809469 -1.24609375 29.27734375 C-4.29351036 29.32237946 -7.03729259 29.33373048 -9.93603516 28.32885742 C-12.01100634 27.77127036 -12.01100634 27.77127036 -13.61230469 28.96875 C-14.12696289 29.4740625 -14.64162109 29.979375 -15.171875 30.5 C-16.0386084 31.33096191 -16.0386084 31.33096191 -16.92285156 32.17871094 C-17.82729004 33.08024902 -17.82729004 33.08024902 -18.75 34 C-20.00968426 35.21430191 -21.27009521 36.42785044 -22.53125 37.640625 C-23.13324219 38.22650391 -23.73523438 38.81238281 -24.35546875 39.41601562 C-26.26780611 41.25794627 -28.23770366 43.01810561 -30.25 44.75 C-31.14525391 45.53503906 -31.14525391 45.53503906 -32.05859375 46.3359375 C-33.55121962 47.61533111 -35.06929258 48.86508181 -36.59765625 50.1015625 C-41.7235689 54.39405338 -44.79490162 57.45210853 -46.4375 63.98828125 C-47.54888186 67.96301498 -49.79572237 70.31649108 -53.3125 72.3125 C-59.53632127 73.90464032 -64.44912934 73.24673567 -70 70 C-73.06373139 65.96877448 -74.08872868 63.62593445 -74.0625 58.625 C-74.31477399 55.43131867 -74.73874207 54.27574352 -76.97265625 51.91796875 C-78.81965265 50.45179635 -80.69463834 49.02048848 -82.58984375 47.6171875 C-86.7391398 44.53400422 -90.43814746 40.98738091 -94.1875 37.4375 C-94.8592627 36.80497314 -95.53102539 36.17244629 -96.22314453 35.52075195 C-97.8182818 34.01685405 -99.40956717 32.50887217 -101 31 C-103.18860321 32.04240689 -104.89841965 32.90594412 -106.6875 34.5625 C-110.24893463 36.77636477 -113.84265511 37.13737314 -118 37 C-121.3125 35.6875 -121.3125 35.6875 -124 34 C-125.32802751 33.32282561 -126.66044225 32.65406977 -128 32 C-129.051875 32.96099609 -129.051875 32.96099609 -130.125 33.94140625 C-135.0253968 38.40902345 -139.93984767 42.85361527 -144.94921875 47.19921875 C-148.30652435 50.14725281 -151.59945083 53.1666811 -154.8984375 56.1796875 C-157 58 -157 58 -159 59 C-158.94779297 60.19496094 -158.94779297 60.19496094 -158.89453125 61.4140625 C-158.61560904 72.33187454 -158.61560904 72.33187454 -162 77 C-165.65165394 80.3777799 -168.25853268 81.83255122 -173.25 82.3125 C-178.62532091 81.86455659 -182.1753191 80.007149 -185.875 75.9375 C-188.26399286 71.8231234 -188.63516098 67.64902547 -188 63 C-185.76448472 58.69456317 -183.2420995 55.39770841 -179 53 C-173.48844659 52.27240219 -169.08608426 52.72942667 -164 55 C-163.55011719 54.52691406 -163.10023438 54.05382812 -162.63671875 53.56640625 C-157.90418416 48.70109514 -152.89542395 44.41061964 -147.60546875 40.1640625 C-144.75571408 37.79709985 -142.17721178 35.28886517 -139.62890625 32.60546875 C-137.92176825 30.92289388 -136.10377943 29.56122585 -134.1875 28.125 C-130.65573474 25.19488502 -130.2593018 22.65597986 -129.58203125 18.25 C-128.57198149 14.34537812 -126.00729382 11.5972083 -123 9 C-119.17743327 6.76642179 -116.44723205 6.48115626 -112 7 C-107.58373609 9.03765118 -103.31271262 11.6180182 -101 16 C-100.84015625 16.63808594 -100.6803125 17.27617187 -100.515625 17.93359375 C-98.55127405 25.59190794 -94.0031266 29.13308365 -88 34 C-86.61978108 35.20236857 -85.2443216 36.41023549 -83.875 37.625 C-82.58362811 38.75033836 -81.29195444 39.8753305 -80 41 C-78.49968066 42.31213495 -76.99967399 43.62462751 -75.5 44.9375 C-74.8296875 45.52402344 -74.159375 46.11054688 -73.46875 46.71484375 C-72.9840625 47.13894531 -72.499375 47.56304687 -72 48 C-71.030625 47.34 -70.06125 46.68 -69.0625 46 C-64.73070533 43.53596295 -60.88697973 43.24198307 -56 44 C-52.6875 45.375 -52.6875 45.375 -50 47 C-48.67100479 47.67527324 -47.33843059 48.34362679 -46 49 C-38.20668893 42.41015376 -30.5174088 35.74842904 -23.08911133 28.74707031 C-19.20019973 25.10009986 -19.20019973 25.10009986 -17 24 C-17.165 23.360625 -17.33 22.72125 -17.5 22.0625 C-18.4142579 16.46267037 -18.94125033 11.84763954 -16.3125 6.6875 C-11.19816617 0.74381473 -7.8032221 -1.13050214 0 0 Z " fill="#08C6CD" transform="translate(333,172)"/>
<path d="M0 0 C3.01125 -0.0825 6.0225 -0.165 9.125 -0.25 C10.06230957 -0.28641602 10.99961914 -0.32283203 11.96533203 -0.36035156 C17.48380317 -0.43322594 20.65585288 0.26674857 25 4 C28.58105618 9.01347865 28.68748179 14.05752038 28 20 C26.75831785 25.07260847 24.34824274 28.10117151 20 31 C17.703463 32.1482685 16.41686833 32.11561175 13.8671875 32.09765625 C13.14128418 32.09515869 12.41538086 32.09266113 11.66748047 32.09008789 C10.74596191 32.08098389 9.82444336 32.07187988 8.875 32.0625 C5.94625 32.041875 3.0175 32.02125 0 32 C0 21.44 0 10.88 0 0 Z " fill="#393259" transform="translate(123,262)"/>
<path d="M0 0 C1.4540625 0.0309375 1.4540625 0.0309375 2.9375 0.0625 C5.9782934 7.20906513 8.90064285 14.40023367 11.75 21.625 C12.06396729 22.41052246 12.37793457 23.19604492 12.70141602 24.00537109 C13.13732056 25.118396 13.13732056 25.118396 13.58203125 26.25390625 C13.84346924 26.91592041 14.10490723 27.57793457 14.37426758 28.26000977 C14.9375 30.0625 14.9375 30.0625 14.9375 33.0625 C12.6275 33.0625 10.3175 33.0625 7.9375 33.0625 C7.2775 31.4125 6.6175 29.7625 5.9375 28.0625 C1.6475 27.7325 -2.6425 27.4025 -7.0625 27.0625 C-7.3925 29.0425 -7.7225 31.0225 -8.0625 33.0625 C-10.7025 33.0625 -13.3425 33.0625 -16.0625 33.0625 C-13.76828414 25.95783155 -11.1673517 19.01041288 -8.4375 12.0625 C-8.03015625 11.01449219 -7.6228125 9.96648437 -7.203125 8.88671875 C-6.81382812 7.89285156 -6.42453125 6.89898437 -6.0234375 5.875 C-5.67071777 4.97394531 -5.31799805 4.07289063 -4.95458984 3.14453125 C-3.63907079 0.07426675 -3.63907079 0.07426675 0 0 Z " fill="#3A335A" transform="translate(181.0625,260.9375)"/>
<path d="M0 0 C3.85544798 1.99657127 5.59805092 3.39707638 8 7 C8 7.99 8 8.98 8 10 C6.72125 10.061875 5.4425 10.12375 4.125 10.1875 C3.40570313 10.22230469 2.68640625 10.25710938 1.9453125 10.29296875 C1.30335938 10.19628906 0.66140625 10.09960938 0 10 C-0.66 9.01 -1.32 8.02 -2 7 C-5.08365871 6.7497843 -5.08365871 6.7497843 -8 7 C-8.33 8.32 -8.66 9.64 -9 11 C-6.62785338 11.99477116 -4.26899626 12.91910967 -1.8046875 13.66015625 C6.47733589 16.16116331 6.47733589 16.16116331 9 20 C9.48123395 23.84987164 9.38056074 26.86198811 7 30 C1.65624863 33.93750101 -4.63711894 33.92266128 -11 33 C-13.98925575 31.68270085 -14.86876599 30.64964228 -17 28 C-17.875 24.6875 -17.875 24.6875 -18 22 C-14.6875 21.75 -14.6875 21.75 -11 22 C-10.54625 22.66 -10.0925 23.32 -9.625 24 C-8.1959552 26.23148511 -8.1959552 26.23148511 -5.82421875 26.265625 C-3.53808952 26.25140336 -1.27940198 26.17203034 1 26 C0.505 23.525 0.505 23.525 0 21 C-1.21236328 20.76216797 -1.21236328 20.76216797 -2.44921875 20.51953125 C-7.27966347 19.46487444 -11.15149668 18.58742538 -15.25 15.75 C-17.5494984 12.13650252 -17.75149268 10.20835902 -17 6 C-11.923934 -0.14471147 -7.68298986 -0.87199578 0 0 Z " fill="#3C365C" transform="translate(294,261)"/>
<path d="M0 0 C3.85544798 1.99657127 5.59805092 3.39707638 8 7 C8 8.32 8 9.64 8 11 C4.6875 11.25 4.6875 11.25 1 11 C-0.0260734 9.68662604 -1.02727325 8.35335895 -2 7 C-5.08415377 6.55022757 -7.0309108 6.35016682 -9.671875 8.12109375 C-11.63538562 10.89888377 -11.32563125 13.14197241 -11.25 16.5 C-11.23453125 17.6446875 -11.2190625 18.789375 -11.203125 19.96875 C-11.12488069 23.04550934 -11.12488069 23.04550934 -10 26 C-5.98784919 26.20592535 -5.98784919 26.20592535 -2 26 C-0.97980427 25.0206121 0.02149805 24.02104551 1 23 C4.6875 22.8125 4.6875 22.8125 8 23 C7.52153935 27.30614589 6.34073619 29.24880549 3 32 C-1.66740069 33.55580023 -6.13561193 33.71235809 -11 33 C-15.0404445 30.93329476 -17.35457257 28.23473074 -19.4375 24.25 C-20.63282226 17.34369361 -21.14097203 10.99726983 -17 5 C-11.46018302 0.00065297 -7.34545175 -0.83368624 0 0 Z " fill="#3B345A" transform="translate(338,261)"/>
<path d="M0 0 C2.64 0 5.28 0 8 0 C10.64 7.26 13.28 14.52 16 22 C18.26014093 15.50856916 18.26014093 15.50856916 20.51733398 9.01611328 C20.79907471 8.20899902 21.08081543 7.40188477 21.37109375 6.5703125 C21.65911865 5.74289551 21.94714355 4.91547852 22.24389648 4.06298828 C23 2 23 2 24 0 C26.31 0 28.62 0 31 0 C30.40100964 4.35041165 29.33500629 8.14692106 27.75 12.23828125 C27.3065625 13.38748047 26.863125 14.53667969 26.40625 15.72070312 C25.9421875 16.90599609 25.478125 18.09128906 25 19.3125 C24.30390625 21.11944336 24.30390625 21.11944336 23.59375 22.96289062 C20.14210829 31.85789171 20.14210829 31.85789171 19 33 C16.66702567 33.04092937 14.33294775 33.04241723 12 33 C10.44882236 28.94430488 8.90065133 24.88747876 7.35522461 20.82958984 C6.82935214 19.45004512 6.30266743 18.07080974 5.77514648 16.69189453 C5.0159133 14.70686827 4.25963298 12.72073844 3.50390625 10.734375 C3.04830322 9.54038086 2.5927002 8.34638672 2.12329102 7.11621094 C1.26620095 4.73848923 0.53595847 2.46380909 0 0 Z " fill="#3D365C" transform="translate(210,261)"/>
<path d="M0 0 C1.8125 0.9375 1.8125 0.9375 2.8125 3.9375 C3.555 3.2775 4.2975 2.6175 5.0625 1.9375 C7.8125 -0.0625 7.8125 -0.0625 11.8125 -0.0625 C12.0486959 6.34103322 11.635821 11.78379161 9.8125 17.9375 C10.4725 17.9375 11.1325 17.9375 11.8125 17.9375 C12.4725 16.6175 13.1325 15.2975 13.8125 13.9375 C13.45053085 16.61607172 13.07262724 18.54730914 11.5625 20.8125 C9.8125 21.9375 9.8125 21.9375 7.125 21.625 C6.361875 21.398125 5.59875 21.17125 4.8125 20.9375 C5.31119404 15.56858121 5.83477532 10.24514827 6.8125 4.9375 C3.24047423 8.02925339 1.92977462 10.69502625 0.5625 15.1875 C0.22734375 16.26515625 -0.1078125 17.3428125 -0.453125 18.453125 C-0.69546875 19.27296875 -0.9378125 20.0928125 -1.1875 20.9375 C-2.8375 21.2675 -4.4875 21.5975 -6.1875 21.9375 C-5.5275 16.3275 -4.8675 10.7175 -4.1875 4.9375 C-5.1775 5.9275 -6.1675 6.9175 -7.1875 7.9375 C-6.60105786 3.83240502 -4.57621052 -0.13074887 0 0 Z " fill="#10C6CE" transform="translate(253.1875,271.0625)"/>
<path d="M0 0 C10 0 10 0 12.625 2 C14.82964861 6.81014243 14.61075287 10.83887446 13.1875 15.875 C12 18 12 18 9 20 C6.03 20 3.06 20 0 20 C0 13.4 0 6.8 0 0 Z " fill="#F8F8F9" transform="translate(130,268)"/>
<path d="M0 0 C2.31 0 4.62 0 7 0 C7 10.89 7 21.78 7 33 C4.69 33 2.38 33 0 33 C0 22.11 0 11.22 0 0 Z " fill="#3A3359" transform="translate(362,261)"/>
<path d="M0 0 C3.80470451 0.7133821 5.41196019 1.67868421 8 4.5625 C9.0625 8 9.0625 8 9 11.5625 C7.23358828 14.36439446 5.96950178 16.07774911 3 17.5625 C-1.0130324 18.09757099 -2.53928033 17.89301628 -5.875 15.5 C-8 12.5625 -8 12.5625 -8.625 9.0625 C-7.67703424 3.75389177 -5.38444917 1.00958422 0 0 Z " fill="#F7FDFD" transform="translate(273,221.4375)"/>
<path d="M0 0 C4.12175661 0.15553799 6.32445009 0.39373726 9.4375 3.1875 C11.30215998 6.54388796 11.6303761 8.2177434 11 12 C9.5 14.875 9.5 14.875 7 17 C4.19913769 17.66003927 1.80697319 17.61096336 -1 17 C-4.32199976 14.87051297 -4.89590149 13.3367893 -6.0625 9.5625 C-6 6 -6 6 -3.625 3.125 C-2.75875 2.42375 -1.8925 1.7225 -1 1 C-0.67 0.67 -0.34 0.34 0 0 Z " fill="#F6FDFD" transform="translate(215,185)"/>
<path d="M0 0 C2.55376992 0.85125664 3.66416489 1.568212 5.3125 3.6875 C6.34268246 7.15265918 5.92995212 9.52817876 5 13 C2.37758123 15.92212377 0.81271786 16.86731137 -3.0625 17.5 C-6.64818067 16.88967138 -7.76863693 15.80986461 -10 13 C-11.44430855 10.11138291 -11.37688506 8.20352299 -11 5 C-7.72846952 0.57381171 -5.48700963 -0.8172142 0 0 Z " fill="#F9FDFD" transform="translate(332,178)"/>
<path d="M0 0 C3.34265205 1.20706879 3.94704566 1.92056849 6 5 C6.47609586 8.65006827 6.21601636 10.56796727 4.5625 13.875 C1.31014819 16.57207223 -0.73325466 16.73269288 -4.87109375 16.48046875 C-7 16 -7 16 -9.5625 13.9375 C-11.36851464 10.24694834 -11.66410856 8.05844123 -11 4 C-7.6437354 0.15016708 -5.0126452 -0.63991215 0 0 Z " fill="#F7FDFD" transform="translate(162,231)"/>
<path d="M0 0 C0.99 0.33 1.98 0.66 3 1 C3 3.31 3 5.62 3 8 C3.66 8 4.32 8 5 8 C4.979375 7.05125 4.95875 6.1025 4.9375 5.125 C5 2 5 2 6 0 C7.32 0 8.64 0 10 0 C10.33 1.98 10.66 3.96 11 6 C11.33 6 11.66 6 12 6 C12.33 4.02 12.66 2.04 13 0 C13.99 0 14.98 0 16 0 C15.40075776 4.19469571 14.42500059 8.00999834 13 12 C11.68 11.67 10.36 11.34 9 11 C8.67 9.35 8.34 7.7 8 6 C7.34 7.98 6.68 9.96 6 12 C4.68 12 3.36 12 2 12 C0.70756464 7.8803623 -0.26252625 4.33168317 0 0 Z " fill="#544E70" transform="translate(89,308)"/>
<path d="M0 0 C0.99 0 1.98 0 3 0 C3 4.29 3 8.58 3 13 C-3.0546875 13.1953125 -3.0546875 13.1953125 -5 13 C-7 11 -7 11 -7.25 8.5 C-7 6 -7 6 -5 4 C-2.375 3.875 -2.375 3.875 0 4 C0 2.68 0 1.36 0 0 Z " fill="#4E486B" transform="translate(284,307)"/>
<path d="M0 0 C6.0546875 -0.1953125 6.0546875 -0.1953125 8 0 C10 2 10 2 10.25 4.5 C10 7 10 7 8 9 C5.375 9.125 5.375 9.125 3 9 C3 9.99 3 10.98 3 12 C2.01 12 1.02 12 0 12 C0 8.04 0 4.08 0 0 Z " fill="#585273" transform="translate(358,311)"/>
<path d="M0 0 C3 0.25 3 0.25 5 2.25 C5.25 4.75 5.25 4.75 5 7.25 C3 9.25 3 9.25 0 9.5 C-3 9.25 -3 9.25 -5 7.25 C-5.25 4.75 -5.25 4.75 -5 2.25 C-3 0.25 -3 0.25 0 0 Z " fill="#5D5777" transform="translate(230,310.75)"/>
<path d="M0 0 C0.94875 0.04125 1.8975 0.0825 2.875 0.125 C3.205 1.775 3.535 3.425 3.875 5.125 C1.895 5.125 -0.085 5.125 -2.125 5.125 C-2.125 5.785 -2.125 6.445 -2.125 7.125 C-0.145 6.795 1.835 6.465 3.875 6.125 C2.885 7.61 2.885 7.61 1.875 9.125 C-0.625 9.4375 -0.625 9.4375 -3.125 9.125 C-5.125 7.125 -5.125 7.125 -5.375 4.625 C-4.98192433 0.69424327 -3.8631953 0.15452781 0 0 Z " fill="#5C5676" transform="translate(191.125,310.875)"/>
<path d="M0 0 C1.99954746 -0.04254356 4.00041636 -0.04080783 6 0 C7 1 7 1 7.09765625 2.84765625 C7.04882812 5.92382812 7.04882812 5.92382812 7 9 C4.36 9 1.72 9 -1 9 C-0.67 7.35 -0.34 5.7 0 4 C1.32 3.67 2.64 3.34 4 3 C4 2.34 4 1.68 4 1 C2.35 1.66 0.7 2.32 -1 3 C-0.67 2.01 -0.34 1.02 0 0 Z " fill="#524C6E" transform="translate(391,311)"/>
<path d="M0 0 C2.5 0.25 2.5 0.25 4.5 2.25 C4.5 3.24 4.5 4.23 4.5 5.25 C2.52 5.25 0.54 5.25 -1.5 5.25 C-1.5 5.91 -1.5 6.57 -1.5 7.25 C0.48 6.92 2.46 6.59 4.5 6.25 C3.51 7.735 3.51 7.735 2.5 9.25 C0 9.5625 0 9.5625 -2.5 9.25 C-4.5 7.25 -4.5 7.25 -4.75 4.75 C-4.40058445 1.25584452 -3.49415548 0.34941555 0 0 Z " fill="#443D62" transform="translate(378.5,310.75)"/>
<path d="M0 0 C2.5 0.25 2.5 0.25 4.5 2.25 C4.5 3.24 4.5 4.23 4.5 5.25 C2.52 5.25 0.54 5.25 -1.5 5.25 C-1.5 5.91 -1.5 6.57 -1.5 7.25 C0.48 6.92 2.46 6.59 4.5 6.25 C3.51 7.735 3.51 7.735 2.5 9.25 C0 9.5625 0 9.5625 -2.5 9.25 C-4.5 7.25 -4.5 7.25 -4.75 4.75 C-4.40058445 1.25584452 -3.49415548 0.34941555 0 0 Z " fill="#443D62" transform="translate(115.5,310.75)"/>
<path d="M0 0 C0.66 0 1.32 0 2 0 C2.50559908 1.43554025 3.0042749 2.8735202 3.5 4.3125 C3.7784375 5.11300781 4.056875 5.91351563 4.34375 6.73828125 C5 9 5 9 5 12 C2.36 12 -0.28 12 -3 12 C-2.68950274 10.56206608 -2.3765224 9.1246682 -2.0625 7.6875 C-1.88847656 6.88699219 -1.71445313 6.08648437 -1.53515625 5.26171875 C-1 3 -1 3 0 0 Z " fill="#E2E1E7" transform="translate(180,271)"/>
<path d="M0 0 C6.15234375 -0.09765625 6.15234375 -0.09765625 8 0 C9 1 9 1 9.09765625 2.84765625 C9.04882812 5.92382812 9.04882812 5.92382812 9 9 C8.01 9 7.02 9 6 9 C5.67 6.69 5.34 4.38 5 2 C4.67 2 4.34 2 4 2 C3.67 4.31 3.34 6.62 3 9 C2.01 9 1.02 9 0 9 C0 6.03 0 3.06 0 0 Z " fill="#565071" transform="translate(135,311)"/>
<path d="M0 0 C1.99954746 -0.04254356 4.00041636 -0.04080783 6 0 C7 1 7 1 7.09765625 2.84765625 C7.04882812 5.92382812 7.04882812 5.92382812 7 9 C4.69 9 2.38 9 0 9 C-0.33 7.68 -0.66 6.36 -1 5 C0.65 4.01 2.3 3.02 4 2 C3.34 1.67 2.68 1.34 2 1 C2 1.66 2 2.32 2 3 C1.34 3 0.68 3 0 3 C0 2.01 0 1.02 0 0 Z " fill="#716C88" transform="translate(157,311)"/>
<path d="M0 0 C0.66 0 1.32 0 2 0 C2.33 1.98 2.66 3.96 3 6 C3.66 5.34 4.32 4.68 5 4 C5.99 4.33 6.98 4.66 8 5 C7.443125 5.86625 7.443125 5.86625 6.875 6.75 C5.70833333 9 5.70833333 9 6.875 11.25 C7.24625 11.8275 7.6175 12.405 8 13 C6.68 12.67 5.36 12.34 4 12 C4 11.34 4 10.68 4 10 C3.34 10 2.68 10 2 10 C2 10.99 2 11.98 2 13 C1.34 13 0.68 13 0 13 C0 8.71 0 4.42 0 0 Z " fill="#433C61" transform="translate(172,307)"/>
<path d="M0 0 C0.66 0 1.32 0 2 0 C2.33 2.31 2.66 4.62 3 7 C3.66 6.01 4.32 5.02 5 4 C5.99 4.33 6.98 4.66 8 5 C7.34 6.32 6.68 7.64 6 9 C6.99 10.32 7.98 11.64 9 13 C5 13 5 13 3.25 11.5 C2.8375 11.005 2.425 10.51 2 10 C2 10.99 2 11.98 2 13 C1.34 13 0.68 13 0 13 C0 8.71 0 4.42 0 0 Z " fill="#413A5F" transform="translate(405,307)"/>
<path d="M0 0 C0.99 0 1.98 0 3 0 C3 2.31 3 4.62 3 7 C3.99 6.67 4.98 6.34 6 6 C6.33 4.02 6.66 2.04 7 0 C7.66 0 8.32 0 9 0 C9 2.97 9 5.94 9 9 C5.625 9.125 5.625 9.125 2 9 C0 7 0 7 -0.125 3.375 C-0.08375 2.26125 -0.0425 1.1475 0 0 Z " fill="#4B4568" transform="translate(241,311)"/>
<path d="M0 0 C0.99 0 1.98 0 3 0 C3.33 1.65 3.66 3.3 4 5 C4.33 5 4.66 5 5 5 C5.33 3.35 5.66 1.7 6 0 C6.99 0 7.98 0 9 0 C8.57476184 1.60746056 8.13429874 3.21089836 7.6875 4.8125 C7.44386719 5.70582031 7.20023438 6.59914063 6.94921875 7.51953125 C5.97135245 10.07486087 5.14907383 11.33709197 3 13 C2.34 13 1.68 13 1 13 C1 12.34 1 11.68 1 11 C1.66 11 2.32 11 3 11 C2.01 7.37 1.02 3.74 0 0 Z " fill="#484266" transform="translate(210,311)"/>
<path d="M0 0 C1.66611905 -0.042721 3.33382885 -0.04063832 5 0 C6 1 6 1 6.09765625 2.84765625 C6.04882812 5.92382812 6.04882812 5.92382812 6 9 C3.69 9 1.38 9 -1 9 C-1.33 7.68 -1.66 6.36 -2 5 C-1.01 4.67 -0.02 4.34 1 4 C1 4.99 1 5.98 1 7 C1.99 7 2.98 7 4 7 C3.67 5.35 3.34 3.7 3 2 C1.68 2.33 0.36 2.66 -1 3 C-0.67 2.01 -0.34 1.02 0 0 Z " fill="#3E375D" transform="translate(322,311)"/>
<path d="M0 0 C0.99 0.33 1.98 0.66 3 1 C3.33 3.31 3.66 5.62 4 8 C1.125 8.125 1.125 8.125 -2 8 C-4 6 -4 6 -4.125 3.375 C-4.08375 2.59125 -4.0425 1.8075 -4 1 C-3.01 1 -2.02 1 -1 1 C-0.67 0.67 -0.34 0.34 0 0 Z " fill="#5B5676" transform="translate(281,312)"/>
<path d="M0 0 C1.99954746 -0.04254356 4.00041636 -0.04080783 6 0 C7 1 7 1 7.09765625 2.84765625 C7.04882812 5.92382812 7.04882812 5.92382812 7 9 C6.01 8.67 5.02 8.34 4 8 C4 7.01 4 6.02 4 5 C3.34 5.66 2.68 6.32 2 7 C1.34 7.66 0.68 8.32 0 9 C-0.5625 7.0625 -0.5625 7.0625 -1 5 C0 4 0 4 2.5625 3.9375 C3.7690625 3.9684375 3.7690625 3.9684375 5 4 C4.67 3.34 4.34 2.68 4 2 C2.35 2.33 0.7 2.66 -1 3 C-0.67 2.01 -0.34 1.02 0 0 Z " fill="#484165" transform="translate(295,311)"/>
<path d="M0 0 C2.64 0 5.28 0 8 0 C8.33 0.99 8.66 1.98 9 3 C7.35 2.67 5.7 2.34 4 2 C4 3.98 4 5.96 4 8 C3.34 8 2.68 8 2 8 C2 9.32 2 10.64 2 12 C1.34 12 0.68 12 0 12 C0 8.04 0 4.08 0 0 Z " fill="#4D476A" transform="translate(358,311)"/>
<path d="M0 0 C1.65 0 3.3 0 5 0 C5.33 0.66 5.66 1.32 6 2 C5.01 2.33 4.02 2.66 3 3 C3.99 3.33 4.98 3.66 6 4 C5.67 5.65 5.34 7.3 5 9 C3.35 9 1.7 9 0 9 C-0.33 8.01 -0.66 7.02 -1 6 C0.32 6 1.64 6 3 6 C1.68 5.34 0.36 4.68 -1 4 C-0.67 2.68 -0.34 1.36 0 0 Z " fill="#4B4568" transform="translate(345,311)"/>
<path d="M0 0 C1.98 0 3.96 0 6 0 C6 0.66 6 1.32 6 2 C5.01 2 4.02 2 3 2 C3 4.31 3 6.62 3 9 C2.01 9 1.02 9 0 9 C0 6.03 0 3.06 0 0 Z " fill="#5A5474" transform="translate(257,311)"/>
<path d="M0 0 C0.99 0 1.98 0 3 0 C2.40075776 4.19469571 1.42500059 8.00999834 0 12 C-0.99 12 -1.98 12 -3 12 C-3 11.01 -3 10.02 -3 9 C-2.34 9 -1.68 9 -1 9 C-0.67 6.03 -0.34 3.06 0 0 Z " fill="#514B6D" transform="translate(102,308)"/>
<path d="M0 0 C1.99954746 -0.04254356 4.00041636 -0.04080783 6 0 C7 1 7 1 7.09765625 2.84765625 C7.06510417 4.8984375 7.03255208 6.94921875 7 9 C6.01 8.67 5.02 8.34 4 8 C4 6.02 4 4.04 4 2 C3.34 1.67 2.68 1.34 2 1 C2 1.66 2 2.32 2 3 C1.34 3 0.68 3 0 3 C0 2.01 0 1.02 0 0 Z " fill="#3E385D" transform="translate(157,311)"/>
<path d="M0 0 C0.66 0 1.32 0 2 0 C2 0.66 2 1.32 2 2 C2.66 2.33 3.32 2.66 4 3 C3.34 3 2.68 3 2 3 C2.66 5.64 3.32 8.28 4 11 C2.68 11 1.36 11 0 11 C-0.19491452 9.54263913 -0.38069358 8.08405407 -0.5625 6.625 C-0.66691406 5.81289063 -0.77132813 5.00078125 -0.87890625 4.1640625 C-1 2 -1 2 0 0 Z " fill="#373057" transform="translate(310,309)"/>
<path d="M0 0 C0.99 0.33 1.98 0.66 3 1 C3 2.65 3 4.3 3 6 C1.68 6 0.36 6 -1 6 C-1.042721 4.33388095 -1.04063832 2.66617115 -1 1 C-0.67 0.67 -0.34 0.34 0 0 Z " fill="#F3F3F5" transform="translate(362,312)"/>
<path d="M0 0 C0.99 0.33 1.98 0.66 3 1 C3 2.65 3 4.3 3 6 C1.68 6 0.36 6 -1 6 C-1.042721 4.33388095 -1.04063832 2.66617115 -1 1 C-0.67 0.67 -0.34 0.34 0 0 Z " fill="#F3F3F5" transform="translate(281,312)"/>
<path d="M0 0 C0.99 0.33 1.98 0.66 3 1 C3 2.65 3 4.3 3 6 C1.68 6 0.36 6 -1 6 C-1.042721 4.33388095 -1.04063832 2.66617115 -1 1 C-0.67 0.67 -0.34 0.34 0 0 Z " fill="#F1F1F3" transform="translate(229,312)"/>
<path d="M0 0 C2.475 0.495 2.475 0.495 5 1 C5 3.64 5 6.28 5 9 C4.34 9 3.68 9 3 9 C2.87625 7.88625 2.7525 6.7725 2.625 5.625 C2.3534187 1.96896323 2.3534187 1.96896323 0 0 Z " fill="#352E56" transform="translate(144,311)"/>
<path d="M0 0 C1.32 0 2.64 0 4 0 C4.33 1.32 4.66 2.64 5 4 C3.02 4 1.04 4 -1 4 C-0.67 2.68 -0.34 1.36 0 0 Z " fill="#7F7A93" transform="translate(391,316)"/>
<path d="M0 0 C0 0.66 0 1.32 0 2 C-1.98 2 -3.96 2 -6 2 C-6.33 2.99 -6.66 3.98 -7 5 C-7 3.35 -7 1.7 -7 0 C-3.86650268 -1.04449911 -3.01031744 -0.93423645 0 0 Z " fill="#817C95" transform="translate(381,313)"/>
<path d="M0 0 C0 0.66 0 1.32 0 2 C-1.98 2 -3.96 2 -6 2 C-6.33 2.99 -6.66 3.98 -7 5 C-7 3.35 -7 1.7 -7 0 C-3.86650268 -1.04449911 -3.01031744 -0.93423645 0 0 Z " fill="#817C95" transform="translate(118,313)"/>
<path d="M0 0 C1.4540625 0.0309375 1.4540625 0.0309375 2.9375 0.0625 C3.2675 1.3825 3.5975 2.7025 3.9375 4.0625 C1.4625 3.0725 1.4625 3.0725 -1.0625 2.0625 C-2.0525 3.3825 -3.0425 4.7025 -4.0625 6.0625 C-4.105221 4.39638095 -4.10313832 2.72867115 -4.0625 1.0625 C-3.0625 0.0625 -3.0625 0.0625 0 0 Z " fill="#3B345B" transform="translate(230.0625,310.9375)"/>
<path d="M0 0 C0.66 0 1.32 0 2 0 C2 0.99 2 1.98 2 3 C3.32 3.66 4.64 4.32 6 5 C4.02 5 2.04 5 0 5 C-0.5625 3.0625 -0.5625 3.0625 -1 1 C-0.67 0.67 -0.34 0.34 0 0 Z " fill="#5A5575" transform="translate(321,315)"/>
</svg>
